<?xml version="1.0" standalone="no"?>
<!DOCTYPE svg PUBLIC "-//W3C//DTD SVG 20010904//EN"
 "http://www.w3.org/TR/2001/REC-SVG-20010904/DTD/svg10.dtd">
<svg version="1.0" xmlns="http://www.w3.org/2000/svg"
 width="414.000000pt" height="414.000000pt" viewBox="0 0 414.000000 414.000000"
 preserveAspectRatio="xMidYMid meet">
<metadata>
Created by potrace 1.11, written by Peter Selinger 2001-2013
</metadata>
<g transform="translate(0.000000,414.000000) scale(0.100000,-0.100000)"
fill="#000000" stroke="none">
<path d="M1549 3467 c-57 -26 -59 -32 -59 -146 l0 -107 -43 -35 c-77 -65 -144
-164 -191 -281 -39 -97 -54 -168 -73 -330 -14 -125 -15 -162 -5 -231 7 -46 12
-102 12 -125 0 -53 36 -234 59 -296 5 -11 14 -39 20 -61 14 -47 19 -58 61
-149 47 -102 115 -203 179 -266 57 -56 167 -120 205 -120 16 1 11 6 -18 20
-22 11 -44 20 -48 20 -5 0 -37 24 -72 53 -65 54 -139 149 -189 239 -16 29 -33
57 -38 62 -5 6 -9 16 -9 23 0 7 -9 32 -19 56 -37 80 -66 187 -96 347 -18 98
-32 360 -19 360 4 0 18 -10 29 -23 52 -59 168 -96 260 -83 69 11 137 79 161
162 39 135 -24 289 -133 325 -51 17 -151 7 -201 -19 -51 -27 -53 -27 -46 -4
24 74 89 178 152 244 47 49 62 52 62 14 0 -44 20 -49 153 -43 83 3 138 11 172
24 l50 19 3 101 3 101 37 7 c54 9 108 -17 170 -83 105 -111 185 -271 231 -459
12 -48 26 -104 31 -123 5 -19 19 -93 31 -165 19 -108 22 -171 23 -370 0 -216
-2 -249 -23 -330 -12 -49 -26 -99 -31 -110 -5 -11 -16 -42 -24 -70 -24 -74
-77 -156 -121 -186 -40 -27 -111 -51 -270 -90 -49 -12 -94 -24 -100 -28 -5 -3
19 -8 55 -11 l65 -5 7 -110 c3 -60 10 -187 14 -281 l7 -171 -30 -11 c-26 -9
-31 -16 -36 -57 -9 -59 -9 -188 -1 -235 l6 -35 236 2 237 3 -1 32 c0 33 -22
225 -29 263 -2 11 -14 25 -27 30 -23 10 -23 14 -29 210 -3 110 -10 261 -14
337 l-8 136 86 85 c72 71 93 100 131 179 30 61 54 129 67 193 21 97 21 108 10
370 -20 449 -32 539 -91 716 -93 277 -274 417 -537 419 -69 0 -73 1 -79 25 -3
14 -4 34 -1 44 2 10 1 25 -4 32 -7 11 -10 9 -15 -8 -6 -23 -24 -32 -24 -12 0
10 -47 9 -210 -5 l-55 -4 48 10 c26 6 47 15 47 20 0 12 -71 8 -101 -5z m277
-305 c-7 -8 -41 -16 -76 -19 -61 -6 -62 -5 -51 15 6 11 11 36 11 54 0 47 43
128 82 156 l33 22 7 -107 c5 -83 4 -111 -6 -121z m-184 166 c-41 -61 -53 -97
-54 -157 l0 -52 -36 3 c-27 2 -36 8 -38 23 -10 106 -13 182 -7 190 10 14 78
32 126 34 l38 1 -29 -42z m26 -199 c-12 -7 -24 -7 -35 0 -15 9 -12 10 17 10
29 0 32 -1 18 -10z m-203 -459 c0 -29 -30 -40 -37 -13 -7 27 2 44 21 41 10 -2
16 -13 16 -28z m495 -1986 c0 -8 14 -29 30 -46 41 -40 30 -48 -20 -14 -29 19
-40 33 -40 51 0 16 6 25 15 25 8 0 15 -7 15 -16z m115 -94 c3 -5 -1 -10 -9
-10 -9 0 -16 5 -16 10 0 6 4 10 9 10 6 0 13 -4 16 -10z"/>
<path d="M1974 2891 c-80 -21 -160 -99 -187 -182 -33 -101 -17 -162 62 -240
63 -62 108 -79 206 -79 67 0 109 17 154 61 51 51 71 107 71 197 0 64 -5 86
-28 132 -40 79 -90 112 -179 116 -37 2 -82 -1 -99 -5z m101 -192 c9 -13 -3
-59 -15 -59 -5 0 -14 9 -20 21 -17 30 17 67 35 38z"/>
<path d="M1707 2133 c-12 -11 -8 -348 4 -382 10 -28 15 -31 54 -31 68 0 69 4
61 217 -4 102 -9 190 -12 195 -6 10 -98 11 -107 1z"/>
<path d="M1780 1310 c0 -5 7 -10 16 -10 8 0 12 5 9 10 -3 6 -10 10 -16 10 -5
0 -9 -4 -9 -10z"/>
</g>
</svg>
